<?xml version="1.0" standalone="no"?>
<!DOCTYPE svg PUBLIC "-//W3C//DTD SVG 20010904//EN"
 "http://www.w3.org/TR/2001/REC-SVG-20010904/DTD/svg10.dtd">
<svg version="1.0" xmlns="http://www.w3.org/2000/svg"
 width="850.000000pt" height="850.000000pt" viewBox="0 0 850.000000 850.000000"
 preserveAspectRatio="xMidYMid meet">
<metadata>
Created by potrace 1.14, written by Peter Selinger 2001-2017
</metadata>
<g transform="translate(0.000000,850.000000) scale(0.100000,-0.100000)"
fill="#000000" stroke="none">
<path d="M0 4250 l0 -4250 4250 0 4250 0 0 4250 0 4250 -4250 0 -4250 0 0
-4250z m1475 1585 c39 -8 102 -30 140 -49 155 -77 234 -187 259 -363 l6 -43
-144 0 -144 0 -12 48 c-25 105 -108 161 -251 170 -108 6 -188 -15 -235 -62
-40 -40 -57 -97 -44 -147 21 -75 70 -97 400 -177 91 -22 191 -50 222 -62 176
-66 255 -189 246 -385 -3 -79 -8 -102 -36 -157 -35 -71 -111 -154 -176 -192
-113 -66 -288 -95 -460 -77 -179 20 -296 71 -389 170 -68 72 -95 135 -112 254
l-6 47 144 0 145 0 11 -47 c30 -121 111 -175 271 -181 211 -9 320 54 320 184
0 102 -50 132 -339 199 -265 62 -345 93 -420 160 -116 105 -136 356 -40 507
71 111 205 191 354 211 73 10 226 5 290 -8z m3485 -145 l0 -130 -140 0 -140 0
0 130 0 130 140 0 140 0 0 -130z m630 17 l0 -113 -65 0 c-88 1 -108 -18 -109
-106 l-1 -63 202 4 201 4 15 -49 c175 -592 212 -714 217 -714 4 0 54 170 112
378 l105 377 148 3 c137 2 147 1 143 -15 -8 -29 -373 -1071 -401 -1145 l-26
-68 90 0 90 0 -3 -127 -3 -128 -135 0 -135 0 -3 27 -3 26 -57 -25 c-45 -21
-77 -27 -166 -32 l-111 -6 -3 -67 -3 -68 91 0 90 0 0 -95 0 -95 -90 0 -90 0 0
-430 0 -430 -140 0 -140 0 0 430 0 430 -80 0 -80 0 0 95 0 94 78 3 77 3 6 100
c12 221 96 295 336 295 115 0 120 3 142 85 11 38 5 59 -148 490 l-158 450 -84
0 -84 0 -3 -427 -2 -428 -135 0 -135 0 0 430 0 430 -80 0 -80 0 0 95 0 94 78
3 77 3 6 110 c4 85 10 119 27 151 35 68 90 108 177 127 11 3 71 5 133 6 l112
1 0 -113z m-1128 -134 l3 -148 88 -3 87 -3 0 -94 0 -94 -87 -3 -88 -3 0 -311
c0 -245 3 -314 13 -327 10 -12 34 -17 85 -19 l72 -3 3 -102 3 -103 -134 0
c-88 0 -150 5 -183 15 -54 16 -106 62 -123 108 -7 18 -11 159 -11 388 l0 359
-75 0 -75 0 0 95 0 94 73 3 72 3 3 148 3 147 134 0 134 0 3 -147z m-732 -129
c80 -24 126 -50 182 -102 179 -167 229 -494 112 -732 -52 -105 -145 -197 -236
-233 -169 -67 -402 -55 -544 28 -101 59 -199 210 -226 349 l-14 69 -18 -89
c-50 -255 -229 -407 -461 -392 -97 7 -164 38 -225 105 l-50 55 0 -276 0 -276
-135 0 -135 0 0 740 0 740 130 0 129 0 3 -76 3 -76 30 41 c44 60 119 108 199
128 135 33 281 -11 387 -116 67 -67 105 -145 128 -258 l17 -83 13 63 c26 129
129 285 225 342 51 30 115 53 181 65 70 13 240 4 305 -16z m1230 -544 l0 -530
-140 0 -140 0 0 530 0 530 140 0 140 0 0 -530z m-1728 -724 c94 -21 170 -61
228 -122 85 -90 118 -203 107 -374 -11 -179 -73 -287 -200 -351 -94 -48 -167
-59 -394 -59 l-203 0 0 -260 0 -260 -150 0 -150 0 0 720 0 720 348 0 c260 0
364 -4 414 -14z m3488 -706 l0 -720 -140 0 -140 0 0 720 0 720 140 0 140 0 0
-720z m-1759 346 c206 -72 329 -272 329 -536 0 -168 -37 -281 -130 -399 -99
-126 -289 -188 -492 -162 -199 26 -311 105 -398 280 -47 94 -63 185 -57 316 8
166 55 282 156 388 73 77 164 122 286 141 72 11 237 -4 306 -28z m-711 -118
l0 -143 -78 0 c-126 0 -198 -39 -239 -130 -16 -35 -18 -79 -21 -357 l-3 -318
-140 0 -139 0 0 530 0 530 135 0 135 0 0 -87 0 -88 26 40 c75 113 156 161 277
164 l47 1 0 -142z m3169 127 c88 -21 151 -58 215 -125 95 -99 134 -203 143
-377 l6 -113 -361 0 c-233 0 -363 -4 -367 -10 -12 -19 16 -117 45 -163 42 -66
95 -91 190 -92 87 0 134 22 170 81 l22 34 139 0 c133 0 139 -1 139 -20 0 -36
-51 -122 -106 -180 -95 -100 -199 -140 -364 -140 -161 0 -263 38 -372 139 -63
57 -105 134 -129 231 -20 79 -17 298 4 378 49 185 169 311 340 357 69 18 207
18 286 0z m-1109 -545 l0 -530 -140 0 -140 0 0 530 0 530 140 0 140 0 0 -530z"/>
<path d="M3432 5209 c-97 -49 -137 -139 -137 -309 0 -134 17 -195 70 -258 48
-55 104 -75 198 -71 60 4 82 9 115 31 166 110 157 520 -14 603 -61 30 -178 32
-232 4z"/>
<path d="M2431 5209 c-120 -22 -191 -144 -191 -325 0 -197 87 -309 240 -308
77 1 114 17 163 74 50 59 72 135 71 250 -2 223 -109 341 -283 309z"/>
<path d="M2770 3730 l0 -210 178 0 c151 0 183 3 217 19 76 35 105 90 105 197
0 74 -11 109 -48 147 -43 45 -105 57 -289 57 l-163 0 0 -210z"/>
<path d="M4645 3591 c-51 -24 -88 -63 -117 -126 -20 -44 -23 -65 -23 -185 0
-120 3 -141 23 -185 46 -101 114 -145 222 -145 108 0 175 44 222 145 20 44 23
65 23 185 0 120 -3 141 -23 185 -47 101 -114 145 -222 145 -42 0 -79 -7 -105
-19z"/>
<path d="M7190 3599 c-43 -17 -89 -71 -110 -126 -33 -89 -48 -83 196 -83 l217
0 -7 41 c-12 74 -60 139 -123 165 -37 16 -136 17 -173 3z"/>
</g>
</svg>
